<mxfile host="app.diagrams.net" modified="2022-01-21T10:03:08.466Z" agent="5.0 (Macintosh; Intel Mac OS X 10_15_7) AppleWebKit/537.36 (KHTML, like Gecko) Chrome/97.0.4692.71 Safari/537.36" etag="4pHg-P5orHX72nBPswLI" version="16.4.0" type="github">
  <diagram id="Py40Cy9DzSVQGQIzbnIX" name="Page-1">
    <mxGraphModel dx="1186" dy="736" grid="1" gridSize="10" guides="1" tooltips="1" connect="1" arrows="1" fold="1" page="1" pageScale="1" pageWidth="827" pageHeight="1169" math="0" shadow="0">
      <root>
        <mxCell id="0" />
        <mxCell id="1" parent="0" />
        <mxCell id="BhdiLrUaDSPjK1AERBm3-1" value="Client" style="shape=umlLifeline;perimeter=lifelinePerimeter;whiteSpace=wrap;html=1;container=1;collapsible=0;recursiveResize=0;outlineConnect=0;fillColor=#d5e8d4;strokeColor=#82b366;" parent="1" vertex="1">
          <mxGeometry x="170" y="440" width="100" height="490" as="geometry" />
        </mxCell>
        <mxCell id="BhdiLrUaDSPjK1AERBm3-3" value="connect request" style="html=1;verticalAlign=bottom;startArrow=oval;startFill=1;endArrow=block;startSize=8;rounded=0;" parent="BhdiLrUaDSPjK1AERBm3-1" target="BhdiLrUaDSPjK1AERBm3-2" edge="1">
          <mxGeometry width="60" relative="1" as="geometry">
            <mxPoint x="50" y="80" as="sourcePoint" />
            <mxPoint x="340" y="80" as="targetPoint" />
          </mxGeometry>
        </mxCell>
        <mxCell id="BhdiLrUaDSPjK1AERBm3-14" value="" style="shape=curlyBracket;whiteSpace=wrap;html=1;rounded=1;" parent="BhdiLrUaDSPjK1AERBm3-1" vertex="1">
          <mxGeometry x="20" y="280" width="20" height="80" as="geometry" />
        </mxCell>
        <mxCell id="BhdiLrUaDSPjK1AERBm3-2" value="Server" style="shape=umlLifeline;perimeter=lifelinePerimeter;whiteSpace=wrap;html=1;container=1;collapsible=0;recursiveResize=0;outlineConnect=0;fillColor=#dae8fc;strokeColor=#6c8ebf;" parent="1" vertex="1">
          <mxGeometry x="490" y="430" width="150" height="520" as="geometry" />
        </mxCell>
        <mxCell id="BhdiLrUaDSPjK1AERBm3-21" value="" style="html=1;points=[];perimeter=orthogonalPerimeter;" parent="BhdiLrUaDSPjK1AERBm3-2" vertex="1">
          <mxGeometry x="70" y="435" width="10" height="40" as="geometry" />
        </mxCell>
        <mxCell id="BhdiLrUaDSPjK1AERBm3-22" value="删除临时节点" style="edgeStyle=orthogonalEdgeStyle;html=1;align=left;spacingLeft=2;endArrow=block;rounded=0;entryX=1;entryY=0;" parent="BhdiLrUaDSPjK1AERBm3-2" target="BhdiLrUaDSPjK1AERBm3-21" edge="1">
          <mxGeometry relative="1" as="geometry">
            <mxPoint x="70" y="420" as="sourcePoint" />
            <Array as="points">
              <mxPoint x="100" y="420" />
              <mxPoint x="100" y="435" />
            </Array>
          </mxGeometry>
        </mxCell>
        <mxCell id="BhdiLrUaDSPjK1AERBm3-4" value="return session-id" style="html=1;verticalAlign=bottom;endArrow=open;dashed=1;endSize=8;rounded=0;" parent="1" source="BhdiLrUaDSPjK1AERBm3-2" target="BhdiLrUaDSPjK1AERBm3-1" edge="1">
          <mxGeometry relative="1" as="geometry">
            <mxPoint x="530" y="550" as="sourcePoint" />
            <mxPoint x="450" y="550" as="targetPoint" />
            <Array as="points">
              <mxPoint x="430" y="550" />
            </Array>
          </mxGeometry>
        </mxCell>
        <mxCell id="BhdiLrUaDSPjK1AERBm3-5" value="create -e /dir some-value [session-id]" style="html=1;verticalAlign=bottom;startArrow=oval;startFill=1;endArrow=block;startSize=8;rounded=0;" parent="1" target="BhdiLrUaDSPjK1AERBm3-2" edge="1">
          <mxGeometry x="0.0015" width="60" relative="1" as="geometry">
            <mxPoint x="219.5" y="611.86" as="sourcePoint" />
            <mxPoint x="569.5" y="611.86" as="targetPoint" />
            <mxPoint as="offset" />
          </mxGeometry>
        </mxCell>
        <mxCell id="BhdiLrUaDSPjK1AERBm3-6" value="ping" style="html=1;verticalAlign=bottom;startArrow=oval;startFill=1;endArrow=block;startSize=8;rounded=0;" parent="1" target="BhdiLrUaDSPjK1AERBm3-2" edge="1">
          <mxGeometry width="60" relative="1" as="geometry">
            <mxPoint x="219.5" y="667" as="sourcePoint" />
            <mxPoint x="569.5" y="667" as="targetPoint" />
            <Array as="points">
              <mxPoint x="310" y="667" />
            </Array>
          </mxGeometry>
        </mxCell>
        <mxCell id="BhdiLrUaDSPjK1AERBm3-8" value="pong" style="html=1;verticalAlign=bottom;endArrow=open;dashed=1;endSize=8;rounded=0;" parent="1" source="BhdiLrUaDSPjK1AERBm3-2" edge="1">
          <mxGeometry relative="1" as="geometry">
            <mxPoint x="569.5" y="692" as="sourcePoint" />
            <mxPoint x="219.5" y="692" as="targetPoint" />
          </mxGeometry>
        </mxCell>
        <mxCell id="BhdiLrUaDSPjK1AERBm3-12" value="" style="endArrow=block;startArrow=block;endFill=1;startFill=1;html=1;rounded=0;" parent="1" edge="1">
          <mxGeometry width="160" relative="1" as="geometry">
            <mxPoint x="219.5" y="824" as="sourcePoint" />
            <mxPoint x="564.5" y="824" as="targetPoint" />
          </mxGeometry>
        </mxCell>
        <mxCell id="BhdiLrUaDSPjK1AERBm3-13" value="session timeout" style="edgeLabel;html=1;align=center;verticalAlign=middle;resizable=0;points=[];" parent="BhdiLrUaDSPjK1AERBm3-12" vertex="1" connectable="0">
          <mxGeometry x="-0.0371" y="1" relative="1" as="geometry">
            <mxPoint x="12" as="offset" />
          </mxGeometry>
        </mxCell>
        <mxCell id="BhdiLrUaDSPjK1AERBm3-15" value="close" style="text;html=1;strokeColor=none;fillColor=none;align=center;verticalAlign=middle;whiteSpace=wrap;rounded=0;" parent="1" vertex="1">
          <mxGeometry x="140" y="745" width="50" height="30" as="geometry" />
        </mxCell>
        <mxCell id="BhdiLrUaDSPjK1AERBm3-30" style="rounded=0;orthogonalLoop=1;jettySize=auto;html=1;exitX=0.5;exitY=1;exitDx=0;exitDy=0;exitPerimeter=0;entryX=0.5;entryY=0;entryDx=0;entryDy=0;entryPerimeter=0;" parent="1" source="BhdiLrUaDSPjK1AERBm3-27" target="BhdiLrUaDSPjK1AERBm3-28" edge="1">
          <mxGeometry relative="1" as="geometry" />
        </mxCell>
        <mxCell id="BhdiLrUaDSPjK1AERBm3-31" style="edgeStyle=none;rounded=0;orthogonalLoop=1;jettySize=auto;html=1;exitX=0.5;exitY=1;exitDx=0;exitDy=0;exitPerimeter=0;entryX=0.5;entryY=0;entryDx=0;entryDy=0;entryPerimeter=0;" parent="1" source="BhdiLrUaDSPjK1AERBm3-27" target="BhdiLrUaDSPjK1AERBm3-29" edge="1">
          <mxGeometry relative="1" as="geometry" />
        </mxCell>
        <mxCell id="BhdiLrUaDSPjK1AERBm3-27" value="/a" style="strokeWidth=2;html=1;shape=mxgraph.flowchart.terminator;whiteSpace=wrap;fillColor=#f8cecc;strokeColor=#b85450;" parent="1" vertex="1">
          <mxGeometry x="429" y="100" width="76" height="40" as="geometry" />
        </mxCell>
        <mxCell id="BhdiLrUaDSPjK1AERBm3-38" style="edgeStyle=none;rounded=0;orthogonalLoop=1;jettySize=auto;html=1;exitX=0.5;exitY=1;exitDx=0;exitDy=0;exitPerimeter=0;" parent="1" source="BhdiLrUaDSPjK1AERBm3-28" target="BhdiLrUaDSPjK1AERBm3-35" edge="1">
          <mxGeometry relative="1" as="geometry" />
        </mxCell>
        <mxCell id="BhdiLrUaDSPjK1AERBm3-39" style="edgeStyle=none;rounded=0;orthogonalLoop=1;jettySize=auto;html=1;exitX=0.5;exitY=1;exitDx=0;exitDy=0;exitPerimeter=0;entryX=0.5;entryY=0;entryDx=0;entryDy=0;entryPerimeter=0;" parent="1" source="BhdiLrUaDSPjK1AERBm3-28" target="BhdiLrUaDSPjK1AERBm3-36" edge="1">
          <mxGeometry relative="1" as="geometry" />
        </mxCell>
        <mxCell id="BhdiLrUaDSPjK1AERBm3-40" style="edgeStyle=none;rounded=0;orthogonalLoop=1;jettySize=auto;html=1;exitX=0.5;exitY=1;exitDx=0;exitDy=0;exitPerimeter=0;entryX=0.5;entryY=0;entryDx=0;entryDy=0;entryPerimeter=0;" parent="1" source="BhdiLrUaDSPjK1AERBm3-28" target="BhdiLrUaDSPjK1AERBm3-37" edge="1">
          <mxGeometry relative="1" as="geometry" />
        </mxCell>
        <mxCell id="BhdiLrUaDSPjK1AERBm3-28" value="/b" style="strokeWidth=2;html=1;shape=mxgraph.flowchart.terminator;whiteSpace=wrap;fillColor=#dae8fc;strokeColor=#6c8ebf;" parent="1" vertex="1">
          <mxGeometry x="353" y="170" width="76" height="40" as="geometry" />
        </mxCell>
        <mxCell id="BhdiLrUaDSPjK1AERBm3-29" value="/c" style="strokeWidth=2;html=1;shape=mxgraph.flowchart.terminator;whiteSpace=wrap;fillColor=#dae8fc;strokeColor=#6c8ebf;" parent="1" vertex="1">
          <mxGeometry x="505" y="170" width="76" height="40" as="geometry" />
        </mxCell>
        <mxCell id="BhdiLrUaDSPjK1AERBm3-35" value="/e" style="strokeWidth=2;html=1;shape=mxgraph.flowchart.terminator;whiteSpace=wrap;fillColor=#d5e8d4;strokeColor=#82b366;" parent="1" vertex="1">
          <mxGeometry x="353" y="260" width="76" height="40" as="geometry" />
        </mxCell>
        <mxCell id="BhdiLrUaDSPjK1AERBm3-36" value="/d" style="strokeWidth=2;html=1;shape=mxgraph.flowchart.terminator;whiteSpace=wrap;fillColor=#d5e8d4;strokeColor=#82b366;" parent="1" vertex="1">
          <mxGeometry x="245" y="260" width="76" height="40" as="geometry" />
        </mxCell>
        <mxCell id="BhdiLrUaDSPjK1AERBm3-37" value="/f" style="strokeWidth=2;html=1;shape=mxgraph.flowchart.terminator;whiteSpace=wrap;fillColor=#d5e8d4;strokeColor=#82b366;" parent="1" vertex="1">
          <mxGeometry x="455" y="260" width="76" height="40" as="geometry" />
        </mxCell>
        <mxCell id="9kZbKHTRD-sr1ncW4Vpb-1" value="/a" style="whiteSpace=wrap;html=1;shape=partialRectangle;top=0;left=0;bottom=1;right=0;points=[[0,1],[1,1]];fillColor=#f5f5f5;align=center;verticalAlign=bottom;routingCenterY=0.5;snapToPoint=1;recursiveResize=0;autosize=1;treeFolding=1;treeMoving=1;newEdgeStyle={&quot;edgeStyle&quot;:&quot;entityRelationEdgeStyle&quot;,&quot;startArrow&quot;:&quot;none&quot;,&quot;endArrow&quot;:&quot;none&quot;,&quot;segment&quot;:10,&quot;curved&quot;:1};fontColor=#333333;sketch=0;strokeColor=#666666;" vertex="1" parent="1">
          <mxGeometry x="565" y="80" width="40" height="20" as="geometry" />
        </mxCell>
        <mxCell id="9kZbKHTRD-sr1ncW4Vpb-2" value="" style="edgeStyle=entityRelationEdgeStyle;startArrow=none;endArrow=none;segment=10;curved=1;rounded=0;fontColor=#000000;exitX=1;exitY=0.5;exitDx=0;exitDy=0;exitPerimeter=0;" edge="1" target="9kZbKHTRD-sr1ncW4Vpb-1" parent="1" source="BhdiLrUaDSPjK1AERBm3-27">
          <mxGeometry relative="1" as="geometry">
            <mxPoint x="535" y="120" as="sourcePoint" />
          </mxGeometry>
        </mxCell>
        <mxCell id="9kZbKHTRD-sr1ncW4Vpb-4" value="/a/c" style="whiteSpace=wrap;html=1;shape=partialRectangle;top=0;left=0;bottom=1;right=0;points=[[0,1],[1,1]];fillColor=#f5f5f5;align=center;verticalAlign=bottom;routingCenterY=0.5;snapToPoint=1;recursiveResize=0;autosize=1;treeFolding=1;treeMoving=1;newEdgeStyle={&quot;edgeStyle&quot;:&quot;entityRelationEdgeStyle&quot;,&quot;startArrow&quot;:&quot;none&quot;,&quot;endArrow&quot;:&quot;none&quot;,&quot;segment&quot;:10,&quot;curved&quot;:1};fontColor=#333333;sketch=0;strokeColor=#666666;" vertex="1" parent="1">
          <mxGeometry x="620" y="150" width="50" height="20" as="geometry" />
        </mxCell>
        <mxCell id="9kZbKHTRD-sr1ncW4Vpb-5" value="" style="edgeStyle=entityRelationEdgeStyle;startArrow=none;endArrow=none;segment=10;curved=1;rounded=0;fontColor=#000000;exitX=1;exitY=0.5;exitDx=0;exitDy=0;exitPerimeter=0;" edge="1" parent="1" target="9kZbKHTRD-sr1ncW4Vpb-4" source="BhdiLrUaDSPjK1AERBm3-29">
          <mxGeometry relative="1" as="geometry">
            <mxPoint x="595" y="190" as="sourcePoint" />
          </mxGeometry>
        </mxCell>
        <mxCell id="9kZbKHTRD-sr1ncW4Vpb-6" value="/a/b/f" style="whiteSpace=wrap;html=1;shape=partialRectangle;top=0;left=0;bottom=1;right=0;points=[[0,1],[1,1]];fillColor=#f5f5f5;align=center;verticalAlign=bottom;routingCenterY=0.5;snapToPoint=1;recursiveResize=0;autosize=1;treeFolding=1;treeMoving=1;newEdgeStyle={&quot;edgeStyle&quot;:&quot;entityRelationEdgeStyle&quot;,&quot;startArrow&quot;:&quot;none&quot;,&quot;endArrow&quot;:&quot;none&quot;,&quot;segment&quot;:10,&quot;curved&quot;:1};fontColor=#333333;sketch=0;strokeColor=#666666;" vertex="1" parent="1">
          <mxGeometry x="575" y="240" width="60" height="20" as="geometry" />
        </mxCell>
        <mxCell id="9kZbKHTRD-sr1ncW4Vpb-7" value="" style="edgeStyle=entityRelationEdgeStyle;startArrow=none;endArrow=none;segment=10;curved=1;rounded=0;fontColor=#000000;exitX=1;exitY=0.5;exitDx=0;exitDy=0;exitPerimeter=0;" edge="1" parent="1" target="9kZbKHTRD-sr1ncW4Vpb-6" source="BhdiLrUaDSPjK1AERBm3-37">
          <mxGeometry relative="1" as="geometry">
            <mxPoint x="555" y="280" as="sourcePoint" />
          </mxGeometry>
        </mxCell>
        <mxCell id="9kZbKHTRD-sr1ncW4Vpb-8" value="/a/b" style="whiteSpace=wrap;html=1;shape=partialRectangle;top=0;left=0;bottom=1;right=0;points=[[0,1],[1,1]];fillColor=#f5f5f5;align=center;verticalAlign=bottom;routingCenterY=0.5;snapToPoint=1;recursiveResize=0;autosize=1;treeFolding=1;treeMoving=1;newEdgeStyle={&quot;edgeStyle&quot;:&quot;entityRelationEdgeStyle&quot;,&quot;startArrow&quot;:&quot;none&quot;,&quot;endArrow&quot;:&quot;none&quot;,&quot;segment&quot;:10,&quot;curved&quot;:1};fontColor=#333333;sketch=0;strokeColor=#666666;" vertex="1" parent="1">
          <mxGeometry x="260" y="140" width="50" height="20" as="geometry" />
        </mxCell>
        <mxCell id="9kZbKHTRD-sr1ncW4Vpb-9" value="" style="edgeStyle=entityRelationEdgeStyle;startArrow=none;endArrow=none;segment=10;curved=1;rounded=0;fontColor=#000000;exitX=0;exitY=0.5;exitDx=0;exitDy=0;exitPerimeter=0;entryX=1;entryY=1;entryDx=0;entryDy=0;" edge="1" parent="1" target="9kZbKHTRD-sr1ncW4Vpb-8" source="BhdiLrUaDSPjK1AERBm3-28">
          <mxGeometry relative="1" as="geometry">
            <mxPoint x="235" y="150" as="sourcePoint" />
          </mxGeometry>
        </mxCell>
        <mxCell id="9kZbKHTRD-sr1ncW4Vpb-10" value="/a/b/d" style="whiteSpace=wrap;html=1;shape=partialRectangle;top=0;left=0;bottom=1;right=0;points=[[0,1],[1,1]];fillColor=#f5f5f5;align=center;verticalAlign=bottom;routingCenterY=0.5;snapToPoint=1;recursiveResize=0;autosize=1;treeFolding=1;treeMoving=1;newEdgeStyle={&quot;edgeStyle&quot;:&quot;entityRelationEdgeStyle&quot;,&quot;startArrow&quot;:&quot;none&quot;,&quot;endArrow&quot;:&quot;none&quot;,&quot;segment&quot;:10,&quot;curved&quot;:1};fontColor=#333333;sketch=0;strokeColor=#666666;" vertex="1" parent="1">
          <mxGeometry x="160" y="230" width="60" height="20" as="geometry" />
        </mxCell>
        <mxCell id="9kZbKHTRD-sr1ncW4Vpb-11" value="" style="edgeStyle=entityRelationEdgeStyle;startArrow=none;endArrow=none;segment=10;curved=1;rounded=0;fontColor=#000000;exitX=0;exitY=0.5;exitDx=0;exitDy=0;exitPerimeter=0;entryX=1;entryY=1;entryDx=0;entryDy=0;" edge="1" parent="1" target="9kZbKHTRD-sr1ncW4Vpb-10" source="BhdiLrUaDSPjK1AERBm3-36">
          <mxGeometry relative="1" as="geometry">
            <mxPoint x="225" y="275" as="sourcePoint" />
          </mxGeometry>
        </mxCell>
        <mxCell id="9kZbKHTRD-sr1ncW4Vpb-18" style="edgeStyle=orthogonalEdgeStyle;rounded=0;orthogonalLoop=1;jettySize=auto;html=1;exitX=0.5;exitY=1;exitDx=0;exitDy=0;fontColor=#000000;curved=1;strokeColor=#3399FF;" edge="1" parent="1" source="9kZbKHTRD-sr1ncW4Vpb-12" target="9kZbKHTRD-sr1ncW4Vpb-13">
          <mxGeometry relative="1" as="geometry" />
        </mxCell>
        <mxCell id="9kZbKHTRD-sr1ncW4Vpb-30" value="&lt;font color=&quot;#3399ff&quot;&gt;push event&lt;/font&gt;" style="edgeLabel;html=1;align=center;verticalAlign=middle;resizable=0;points=[];fontColor=#FF8000;" vertex="1" connectable="0" parent="9kZbKHTRD-sr1ncW4Vpb-18">
          <mxGeometry x="0.2855" y="4" relative="1" as="geometry">
            <mxPoint as="offset" />
          </mxGeometry>
        </mxCell>
        <mxCell id="9kZbKHTRD-sr1ncW4Vpb-19" style="edgeStyle=orthogonalEdgeStyle;curved=1;rounded=0;orthogonalLoop=1;jettySize=auto;html=1;exitX=0.5;exitY=1;exitDx=0;exitDy=0;fontColor=#000000;strokeColor=#3399FF;" edge="1" parent="1" source="9kZbKHTRD-sr1ncW4Vpb-12" target="9kZbKHTRD-sr1ncW4Vpb-15">
          <mxGeometry relative="1" as="geometry" />
        </mxCell>
        <mxCell id="9kZbKHTRD-sr1ncW4Vpb-31" value="push event" style="edgeLabel;html=1;align=center;verticalAlign=middle;resizable=0;points=[];fontColor=#3399FF;" vertex="1" connectable="0" parent="9kZbKHTRD-sr1ncW4Vpb-19">
          <mxGeometry x="0.6346" y="7" relative="1" as="geometry">
            <mxPoint as="offset" />
          </mxGeometry>
        </mxCell>
        <mxCell id="9kZbKHTRD-sr1ncW4Vpb-20" style="edgeStyle=orthogonalEdgeStyle;curved=1;rounded=0;orthogonalLoop=1;jettySize=auto;html=1;exitX=0.5;exitY=1;exitDx=0;exitDy=0;entryX=0.5;entryY=0;entryDx=0;entryDy=0;fontColor=#000000;strokeColor=#3399FF;" edge="1" parent="1" source="9kZbKHTRD-sr1ncW4Vpb-12" target="9kZbKHTRD-sr1ncW4Vpb-16">
          <mxGeometry relative="1" as="geometry" />
        </mxCell>
        <mxCell id="9kZbKHTRD-sr1ncW4Vpb-32" value="push event" style="edgeLabel;html=1;align=center;verticalAlign=middle;resizable=0;points=[];fontColor=#3399FF;" vertex="1" connectable="0" parent="9kZbKHTRD-sr1ncW4Vpb-20">
          <mxGeometry x="0.6171" y="-6" relative="1" as="geometry">
            <mxPoint y="1" as="offset" />
          </mxGeometry>
        </mxCell>
        <mxCell id="9kZbKHTRD-sr1ncW4Vpb-21" style="edgeStyle=orthogonalEdgeStyle;curved=1;rounded=0;orthogonalLoop=1;jettySize=auto;html=1;exitX=0.5;exitY=1;exitDx=0;exitDy=0;entryX=0.5;entryY=0;entryDx=0;entryDy=0;fontColor=#000000;strokeColor=#3399FF;" edge="1" parent="1" source="9kZbKHTRD-sr1ncW4Vpb-12" target="9kZbKHTRD-sr1ncW4Vpb-17">
          <mxGeometry relative="1" as="geometry" />
        </mxCell>
        <mxCell id="9kZbKHTRD-sr1ncW4Vpb-33" value="push event" style="edgeLabel;html=1;align=center;verticalAlign=middle;resizable=0;points=[];fontColor=#3399FF;" vertex="1" connectable="0" parent="9kZbKHTRD-sr1ncW4Vpb-21">
          <mxGeometry x="0.3076" y="-4" relative="1" as="geometry">
            <mxPoint as="offset" />
          </mxGeometry>
        </mxCell>
        <mxCell id="9kZbKHTRD-sr1ncW4Vpb-35" style="edgeStyle=orthogonalEdgeStyle;curved=1;rounded=0;orthogonalLoop=1;jettySize=auto;html=1;exitX=1;exitY=0;exitDx=0;exitDy=0;entryX=0;entryY=0.5;entryDx=0;entryDy=0;entryPerimeter=0;fontColor=#3399FF;strokeColor=#3399FF;" edge="1" parent="1" source="9kZbKHTRD-sr1ncW4Vpb-12" target="9kZbKHTRD-sr1ncW4Vpb-34">
          <mxGeometry relative="1" as="geometry" />
        </mxCell>
        <mxCell id="9kZbKHTRD-sr1ncW4Vpb-12" value="zookeeper" style="rounded=1;whiteSpace=wrap;html=1;sketch=0;fillColor=#ffe6cc;strokeColor=#d79b00;" vertex="1" parent="1">
          <mxGeometry x="353.5" y="1110" width="120" height="60" as="geometry" />
        </mxCell>
        <mxCell id="9kZbKHTRD-sr1ncW4Vpb-22" style="edgeStyle=orthogonalEdgeStyle;curved=1;rounded=0;orthogonalLoop=1;jettySize=auto;html=1;exitX=0.25;exitY=0;exitDx=0;exitDy=0;entryX=0;entryY=0.5;entryDx=0;entryDy=0;fontColor=#000000;strokeColor=#FF8000;" edge="1" parent="1" source="9kZbKHTRD-sr1ncW4Vpb-13" target="9kZbKHTRD-sr1ncW4Vpb-12">
          <mxGeometry relative="1" as="geometry" />
        </mxCell>
        <mxCell id="9kZbKHTRD-sr1ncW4Vpb-26" value="get / watch" style="edgeLabel;html=1;align=center;verticalAlign=middle;resizable=0;points=[];fontColor=#FF8000;" vertex="1" connectable="0" parent="9kZbKHTRD-sr1ncW4Vpb-22">
          <mxGeometry x="0.2441" y="-23" relative="1" as="geometry">
            <mxPoint x="1" as="offset" />
          </mxGeometry>
        </mxCell>
        <mxCell id="9kZbKHTRD-sr1ncW4Vpb-13" value="user-service" style="rounded=1;whiteSpace=wrap;html=1;sketch=0;fillColor=#dae8fc;strokeColor=#6c8ebf;" vertex="1" parent="1">
          <mxGeometry x="111" y="1290" width="120" height="60" as="geometry" />
        </mxCell>
        <mxCell id="9kZbKHTRD-sr1ncW4Vpb-23" style="edgeStyle=orthogonalEdgeStyle;curved=1;rounded=0;orthogonalLoop=1;jettySize=auto;html=1;exitX=0.25;exitY=0;exitDx=0;exitDy=0;entryX=0;entryY=0.75;entryDx=0;entryDy=0;fontColor=#000000;strokeColor=#FF8000;" edge="1" parent="1" source="9kZbKHTRD-sr1ncW4Vpb-15" target="9kZbKHTRD-sr1ncW4Vpb-12">
          <mxGeometry relative="1" as="geometry" />
        </mxCell>
        <mxCell id="9kZbKHTRD-sr1ncW4Vpb-27" value="get / watch" style="edgeLabel;html=1;align=center;verticalAlign=middle;resizable=0;points=[];fontColor=#FF8000;" vertex="1" connectable="0" parent="9kZbKHTRD-sr1ncW4Vpb-23">
          <mxGeometry x="-0.1147" y="-5" relative="1" as="geometry">
            <mxPoint x="1" as="offset" />
          </mxGeometry>
        </mxCell>
        <mxCell id="9kZbKHTRD-sr1ncW4Vpb-15" value="user-service" style="rounded=1;whiteSpace=wrap;html=1;sketch=0;fillColor=#dae8fc;strokeColor=#6c8ebf;" vertex="1" parent="1">
          <mxGeometry x="271" y="1290" width="120" height="60" as="geometry" />
        </mxCell>
        <mxCell id="9kZbKHTRD-sr1ncW4Vpb-24" style="edgeStyle=orthogonalEdgeStyle;curved=1;rounded=0;orthogonalLoop=1;jettySize=auto;html=1;exitX=0.75;exitY=0;exitDx=0;exitDy=0;entryX=1;entryY=0.75;entryDx=0;entryDy=0;fontColor=#000000;strokeColor=#FF8000;" edge="1" parent="1" source="9kZbKHTRD-sr1ncW4Vpb-16" target="9kZbKHTRD-sr1ncW4Vpb-12">
          <mxGeometry relative="1" as="geometry" />
        </mxCell>
        <mxCell id="9kZbKHTRD-sr1ncW4Vpb-28" value="get / watch" style="edgeLabel;html=1;align=center;verticalAlign=middle;resizable=0;points=[];fontColor=#FF8000;" vertex="1" connectable="0" parent="9kZbKHTRD-sr1ncW4Vpb-24">
          <mxGeometry x="-0.1063" y="9" relative="1" as="geometry">
            <mxPoint x="1" as="offset" />
          </mxGeometry>
        </mxCell>
        <mxCell id="9kZbKHTRD-sr1ncW4Vpb-16" value="user-service" style="rounded=1;whiteSpace=wrap;html=1;sketch=0;fillColor=#dae8fc;strokeColor=#6c8ebf;" vertex="1" parent="1">
          <mxGeometry x="432" y="1290" width="120" height="60" as="geometry" />
        </mxCell>
        <mxCell id="9kZbKHTRD-sr1ncW4Vpb-25" style="edgeStyle=orthogonalEdgeStyle;curved=1;rounded=0;orthogonalLoop=1;jettySize=auto;html=1;exitX=0.75;exitY=0;exitDx=0;exitDy=0;entryX=1;entryY=0.5;entryDx=0;entryDy=0;fontColor=#000000;strokeColor=#FF8000;" edge="1" parent="1" source="9kZbKHTRD-sr1ncW4Vpb-17" target="9kZbKHTRD-sr1ncW4Vpb-12">
          <mxGeometry relative="1" as="geometry" />
        </mxCell>
        <mxCell id="9kZbKHTRD-sr1ncW4Vpb-29" value="get / watch" style="edgeLabel;html=1;align=center;verticalAlign=middle;resizable=0;points=[];fontColor=#FF8000;" vertex="1" connectable="0" parent="9kZbKHTRD-sr1ncW4Vpb-25">
          <mxGeometry x="0.2055" y="29" relative="1" as="geometry">
            <mxPoint as="offset" />
          </mxGeometry>
        </mxCell>
        <mxCell id="9kZbKHTRD-sr1ncW4Vpb-17" value="user-service" style="rounded=1;whiteSpace=wrap;html=1;sketch=0;fillColor=#dae8fc;strokeColor=#6c8ebf;" vertex="1" parent="1">
          <mxGeometry x="596" y="1290" width="120" height="60" as="geometry" />
        </mxCell>
        <mxCell id="9kZbKHTRD-sr1ncW4Vpb-34" value="k1 = v1&lt;br&gt;k2 = v2" style="shape=note;whiteSpace=wrap;html=1;backgroundOutline=1;darkOpacity=0.05;sketch=0;align=left;spacing=12;fillColor=#fff2cc;strokeColor=#d6b656;size=20;" vertex="1" parent="1">
          <mxGeometry x="516" y="1040" width="114" height="60" as="geometry" />
        </mxCell>
        <mxCell id="9kZbKHTRD-sr1ncW4Vpb-38" style="edgeStyle=orthogonalEdgeStyle;curved=1;rounded=0;orthogonalLoop=1;jettySize=auto;html=1;entryX=0;entryY=0;entryDx=47;entryDy=0;entryPerimeter=0;fontColor=#FF0000;strokeColor=#009900;" edge="1" parent="1" source="9kZbKHTRD-sr1ncW4Vpb-36" target="9kZbKHTRD-sr1ncW4Vpb-34">
          <mxGeometry relative="1" as="geometry" />
        </mxCell>
        <mxCell id="9kZbKHTRD-sr1ncW4Vpb-39" value="update" style="edgeLabel;html=1;align=center;verticalAlign=middle;resizable=0;points=[];fontColor=#009900;" vertex="1" connectable="0" parent="9kZbKHTRD-sr1ncW4Vpb-38">
          <mxGeometry x="-0.2261" relative="1" as="geometry">
            <mxPoint as="offset" />
          </mxGeometry>
        </mxCell>
        <mxCell id="9kZbKHTRD-sr1ncW4Vpb-36" value="User" style="sketch=0;outlineConnect=0;fontColor=#232F3E;gradientColor=none;strokeColor=#232F3E;fillColor=#ffffff;dashed=0;verticalLabelPosition=bottom;verticalAlign=top;align=center;html=1;fontSize=12;fontStyle=0;aspect=fixed;shape=mxgraph.aws4.resourceIcon;resIcon=mxgraph.aws4.user;" vertex="1" parent="1">
          <mxGeometry x="293" y="990" width="60" height="60" as="geometry" />
        </mxCell>
        <mxCell id="9kZbKHTRD-sr1ncW4Vpb-51" style="edgeStyle=orthogonalEdgeStyle;curved=1;rounded=0;orthogonalLoop=1;jettySize=auto;html=1;exitX=0.5;exitY=1;exitDx=0;exitDy=0;fontColor=#009900;strokeColor=#009900;" edge="1" parent="1" source="9kZbKHTRD-sr1ncW4Vpb-41" target="9kZbKHTRD-sr1ncW4Vpb-42">
          <mxGeometry relative="1" as="geometry" />
        </mxCell>
        <mxCell id="9kZbKHTRD-sr1ncW4Vpb-52" style="edgeStyle=orthogonalEdgeStyle;curved=1;rounded=0;orthogonalLoop=1;jettySize=auto;html=1;exitX=0.5;exitY=1;exitDx=0;exitDy=0;entryX=0.5;entryY=0;entryDx=0;entryDy=0;fontColor=#009900;strokeColor=#009900;" edge="1" parent="1" source="9kZbKHTRD-sr1ncW4Vpb-41" target="9kZbKHTRD-sr1ncW4Vpb-43">
          <mxGeometry relative="1" as="geometry" />
        </mxCell>
        <mxCell id="9kZbKHTRD-sr1ncW4Vpb-53" style="edgeStyle=orthogonalEdgeStyle;curved=1;rounded=0;orthogonalLoop=1;jettySize=auto;html=1;exitX=0.5;exitY=1;exitDx=0;exitDy=0;entryX=0.5;entryY=0;entryDx=0;entryDy=0;fontColor=#009900;strokeColor=#009900;" edge="1" parent="1" source="9kZbKHTRD-sr1ncW4Vpb-41" target="9kZbKHTRD-sr1ncW4Vpb-44">
          <mxGeometry relative="1" as="geometry" />
        </mxCell>
        <mxCell id="9kZbKHTRD-sr1ncW4Vpb-54" style="edgeStyle=orthogonalEdgeStyle;curved=1;rounded=0;orthogonalLoop=1;jettySize=auto;html=1;exitX=1;exitY=0.5;exitDx=0;exitDy=0;fontColor=#009900;strokeColor=#009900;" edge="1" parent="1" source="9kZbKHTRD-sr1ncW4Vpb-41" target="9kZbKHTRD-sr1ncW4Vpb-45">
          <mxGeometry relative="1" as="geometry" />
        </mxCell>
        <mxCell id="9kZbKHTRD-sr1ncW4Vpb-41" value="Leader" style="rounded=1;whiteSpace=wrap;html=1;sketch=0;fillColor=#ffe6cc;strokeColor=#d79b00;" vertex="1" parent="1">
          <mxGeometry x="375" y="1510" width="120" height="60" as="geometry" />
        </mxCell>
        <mxCell id="9kZbKHTRD-sr1ncW4Vpb-42" value="Follower" style="rounded=1;whiteSpace=wrap;html=1;sketch=0;fillColor=#d5e8d4;strokeColor=#82b366;" vertex="1" parent="1">
          <mxGeometry x="205.5" y="1650" width="120" height="60" as="geometry" />
        </mxCell>
        <mxCell id="9kZbKHTRD-sr1ncW4Vpb-43" value="Follower" style="rounded=1;whiteSpace=wrap;html=1;sketch=0;fillColor=#d5e8d4;strokeColor=#82b366;" vertex="1" parent="1">
          <mxGeometry x="375.5" y="1650" width="120" height="60" as="geometry" />
        </mxCell>
        <mxCell id="9kZbKHTRD-sr1ncW4Vpb-44" value="Follower" style="rounded=1;whiteSpace=wrap;html=1;sketch=0;fillColor=#d5e8d4;strokeColor=#82b366;" vertex="1" parent="1">
          <mxGeometry x="544.5" y="1650" width="120" height="60" as="geometry" />
        </mxCell>
        <mxCell id="9kZbKHTRD-sr1ncW4Vpb-45" value="Observer" style="rounded=1;whiteSpace=wrap;html=1;sketch=0;fillColor=#dae8fc;strokeColor=#6c8ebf;" vertex="1" parent="1">
          <mxGeometry x="565" y="1510" width="120" height="60" as="geometry" />
        </mxCell>
        <mxCell id="9kZbKHTRD-sr1ncW4Vpb-46" value="负责写数据、读数据" style="whiteSpace=wrap;html=1;shape=partialRectangle;top=0;left=0;bottom=1;right=0;points=[[0,1],[1,1]];fillColor=none;align=center;verticalAlign=bottom;routingCenterY=0.5;snapToPoint=1;recursiveResize=0;autosize=1;treeFolding=1;treeMoving=1;newEdgeStyle={&quot;edgeStyle&quot;:&quot;entityRelationEdgeStyle&quot;,&quot;startArrow&quot;:&quot;none&quot;,&quot;endArrow&quot;:&quot;none&quot;,&quot;segment&quot;:10,&quot;curved&quot;:1};fontColor=#000000;sketch=0;" vertex="1" parent="1">
          <mxGeometry x="195.5" y="1490" width="140" height="20" as="geometry" />
        </mxCell>
        <mxCell id="9kZbKHTRD-sr1ncW4Vpb-47" value="" style="edgeStyle=entityRelationEdgeStyle;startArrow=none;endArrow=none;segment=10;curved=1;rounded=0;fontColor=#000000;strokeColor=#009900;entryX=1;entryY=1;entryDx=0;entryDy=0;exitX=0;exitY=0.5;exitDx=0;exitDy=0;" edge="1" target="9kZbKHTRD-sr1ncW4Vpb-46" parent="1" source="9kZbKHTRD-sr1ncW4Vpb-41">
          <mxGeometry relative="1" as="geometry">
            <mxPoint x="371" y="1540" as="sourcePoint" />
          </mxGeometry>
        </mxCell>
        <mxCell id="9kZbKHTRD-sr1ncW4Vpb-48" value="负责读数据、当 leader 失效，会参与选举" style="whiteSpace=wrap;html=1;shape=partialRectangle;top=0;left=0;bottom=1;right=0;points=[[0,1],[1,1]];fillColor=none;align=center;verticalAlign=bottom;routingCenterY=0.5;snapToPoint=1;recursiveResize=0;autosize=1;treeFolding=1;treeMoving=1;newEdgeStyle={&quot;edgeStyle&quot;:&quot;entityRelationEdgeStyle&quot;,&quot;startArrow&quot;:&quot;none&quot;,&quot;endArrow&quot;:&quot;none&quot;,&quot;segment&quot;:10,&quot;curved&quot;:1};fontColor=#000000;sketch=0;" vertex="1" parent="1">
          <mxGeometry x="60" y="1570" width="250" height="20" as="geometry" />
        </mxCell>
        <mxCell id="9kZbKHTRD-sr1ncW4Vpb-49" value="" style="edgeStyle=entityRelationEdgeStyle;startArrow=none;endArrow=none;segment=10;curved=1;rounded=0;fontColor=#000000;strokeColor=#009900;entryX=0.472;entryY=1.1;entryDx=0;entryDy=0;exitX=0.25;exitY=0;exitDx=0;exitDy=0;entryPerimeter=0;" edge="1" parent="1" target="9kZbKHTRD-sr1ncW4Vpb-48" source="9kZbKHTRD-sr1ncW4Vpb-42">
          <mxGeometry relative="1" as="geometry">
            <mxPoint x="144.75" y="1710" as="sourcePoint" />
          </mxGeometry>
        </mxCell>
        <mxCell id="9kZbKHTRD-sr1ncW4Vpb-55" value="负责读数据" style="whiteSpace=wrap;html=1;shape=partialRectangle;top=0;left=0;bottom=1;right=0;points=[[0,1],[1,1]];fillColor=none;align=center;verticalAlign=bottom;routingCenterY=0.5;snapToPoint=1;recursiveResize=0;autosize=1;treeFolding=1;treeMoving=1;newEdgeStyle={&quot;edgeStyle&quot;:&quot;entityRelationEdgeStyle&quot;,&quot;startArrow&quot;:&quot;none&quot;,&quot;endArrow&quot;:&quot;none&quot;,&quot;segment&quot;:10,&quot;curved&quot;:1};fontColor=#000000;sketch=0;" vertex="1" parent="1">
          <mxGeometry x="670" y="1460" width="90" height="20" as="geometry" />
        </mxCell>
        <mxCell id="9kZbKHTRD-sr1ncW4Vpb-56" value="" style="edgeStyle=entityRelationEdgeStyle;startArrow=none;endArrow=none;segment=10;curved=1;rounded=0;fontColor=#000000;strokeColor=#009900;exitX=0.5;exitY=0;exitDx=0;exitDy=0;" edge="1" target="9kZbKHTRD-sr1ncW4Vpb-55" parent="1" source="9kZbKHTRD-sr1ncW4Vpb-45">
          <mxGeometry relative="1" as="geometry">
            <mxPoint x="670" y="1480" as="sourcePoint" />
          </mxGeometry>
        </mxCell>
      </root>
    </mxGraphModel>
  </diagram>
</mxfile>
